HIERARCHY
ROOT Hips
{
	OFFSET 0.000000 0.000000 0.000000 
	CHANNELS 6 Xposition Yposition Zposition Zrotation Yrotation Xrotation
	JOINT LeftUpLeg
	{
		OFFSET 1.363060 -1.794630 0.839290 
		CHANNELS 3 Zrotation Yrotation Xrotation
		JOINT LeftLeg
		{
			OFFSET 2.448110 -6.726130 0.000000 
			CHANNELS 3 Zrotation Yrotation Xrotation
			JOINT LeftFoot
			{
				OFFSET 2.562200 -7.039590 0.000000 
				CHANNELS 3 Zrotation Yrotation Xrotation
				JOINT LeftToeBase
				{
					OFFSET 0.157640 -0.433110 2.322550 
					CHANNELS 3 Zrotation Yrotation Xrotation
					End Site
					{
						OFFSET 0.000000 0.000000 0.000000 
					}
				}
			}
		}
	}
	JOINT RightUpLeg
	{
		OFFSET -1.305520 -1.794630 0.839290 
		CHANNELS 3 Zrotation Yrotation Xrotation
		JOINT RightLeg
		{
			OFFSET -2.542530 -6.985550 0.000000 
			CHANNELS 3 Zrotation Yrotation Xrotation
			JOINT RightFoot
			{
				OFFSET -2.568260 -7.056230 0.000000 
				CHANNELS 3 Zrotation Yrotation Xrotation
				JOINT RightToeBase
				{
					OFFSET -0.164730 -0.452590 2.363150 
					CHANNELS 3 Zrotation Yrotation Xrotation
					End Site
					{
						OFFSET 0.000000 0.000000 0.000000 
					}
				}
			}
		}
	}
	JOINT Spine
	{
		OFFSET 0.028270 2.035590 -0.193380 
		CHANNELS 3 Zrotation Yrotation Xrotation
		JOINT Spine1
		{
			OFFSET 0.056720 2.048850 -0.042750 
			CHANNELS 3 Zrotation Yrotation Xrotation
			JOINT Neck1
			{
				OFFSET -0.054170 1.746240 0.172020 
				CHANNELS 3 Zrotation Yrotation Xrotation
				JOINT Head
				{
					OFFSET 0.104070 1.761360 -0.123970 
					CHANNELS 3 Zrotation Yrotation Xrotation
					End Site
					{
						OFFSET 0.000000 0.000000 0.000000 
					}
				}
			}
			JOINT LeftArm
			{
				OFFSET 3.362410 1.200890 -0.311210 
				CHANNELS 3 Zrotation Yrotation Xrotation
				JOINT LeftForeArm
				{
					OFFSET 4.983000 -0.000000 -0.000000 
					CHANNELS 3 Zrotation Yrotation Xrotation
					JOINT LeftHand
					{
						OFFSET 3.483560 -0.000000 -0.000000 
						CHANNELS 3 Zrotation Yrotation Xrotation
						JOINT LeftHandIndex1
						{
							OFFSET 0.715260 -0.000000 -0.000000 
							CHANNELS 3 Zrotation Yrotation Xrotation
							End Site
							{
								OFFSET 0.000000 0.000000 0.000000 
							}
						}
					}
				}
			}
			JOINT RightArm
			{
				OFFSET -3.136600 1.374050 -0.404650 
				CHANNELS 3 Zrotation Yrotation Xrotation
				JOINT RightForeArm
				{
					OFFSET -5.241900 -0.000000 -0.000000 
					CHANNELS 3 Zrotation Yrotation Xrotation
					JOINT RightHand
					{
						OFFSET -3.444170 -0.000000 -0.000000 
						CHANNELS 3 Zrotation Yrotation Xrotation
						JOINT RightHandIndex1
						{
							OFFSET -0.622530 -0.000000 -0.000000 
							CHANNELS 3 Zrotation Yrotation Xrotation
							End Site
							{
								OFFSET 0.000000 0.000000 0.000000 
							}
						}
					}
				}
			}
		}
	}
}
MOTION
Frames: 9
Frame Time: 0.041667
9.587085 16.990999 -11.743118 -48.587826 41.869757 104.719168 41.581358 32.235759 -37.820432 0.881471 -2.820081 -4.804666 -0.994384 8.536117 -18.554575 8.873600 16.725700 55.651800 12.132546 -0.014140 24.139179 1.187106 -4.129459 8.836113 9.229329 -46.875094 -1.944471 -4.972900 -13.353200 40.705300 -2.311057 -5.258026 -6.089338 -14.721324 -2.767143 -2.672393 1.426840 -11.843267 -24.548379 0.611700 -5.536300 -9.034400 56.775235 -38.120172 -87.642702 11.363973 -22.708374 -1.788087 -0.216528 -0.040027 7.000444 -7.125000 0.000000 0.000000 -36.935066 11.790015 -65.234309 -18.279349 30.482175 -7.001251 4.064352 3.409025 13.187860 7.125000 0.000000 0.000000 
9.619631 17.030755 -11.356173 -47.900314 42.515499 105.275385 54.245896 2.036233 -22.711157 1.686887 -2.127399 -5.115579 9.462695 -8.657415 -42.609928 8.961300 16.782700 55.956100 11.138951 0.946477 25.778339 1.170313 -4.117977 9.003980 9.228453 -46.492706 -2.595252 -4.822500 -13.181000 40.050000 -2.295889 -5.565923 -6.129669 -14.349981 -2.936492 -3.037652 1.566192 -12.561914 -23.986028 0.792100 -5.795700 -8.665100 55.738199 -37.748310 -84.577220 12.213372 -23.835957 -2.159347 -0.173060 -0.055803 5.734373 -7.125000 0.000000 0.000000 -36.269960 10.825765 -64.249601 -18.493607 30.462796 -7.105052 4.166039 3.250782 14.929453 7.125000 0.000000 0.000000 
9.658385 17.064503 -10.963621 -46.503355 43.081738 105.141735 61.195720 -33.029086 -16.978762 1.681355 -1.550058 -5.460178 23.138528 -25.348564 -86.276300 9.019800 16.820400 56.158500 10.110666 1.613644 27.418100 1.143704 -4.103980 9.140532 9.048280 -45.959701 -2.564147 -4.670700 -13.003000 39.379800 -2.241076 -6.057761 -6.124425 -13.694803 -3.274617 -3.537458 1.183491 -13.644333 -24.456093 0.614400 -6.304900 -9.020100 54.579906 -37.369176 -82.088271 13.014435 -24.891151 -2.535092 -0.131403 -0.068395 5.126038 -7.125000 0.000000 0.000000 -35.522116 9.986041 -63.286213 -18.924712 30.661239 -7.344947 4.233451 3.086837 16.498492 7.125000 0.000000 0.000000 
9.700845 17.091140 -10.573372 -47.016706 44.771776 105.777702 58.353852 -17.573009 -18.788989 1.940063 -0.664528 -1.670924 14.412623 -12.839191 -53.724022 8.709300 16.616900 55.079100 9.205033 2.267415 28.820798 1.136756 -4.057689 9.127690 8.876783 -45.279235 -3.113411 -4.480200 -12.773400 38.526000 -2.168703 -6.073125 -6.227874 -12.964069 -3.181352 -4.051174 1.844148 -14.190135 -24.278953 0.999900 -6.520700 -8.813200 54.768488 -37.198899 -81.929049 13.238073 -25.293512 -2.639207 -0.113330 -0.080614 5.839118 -7.125000 0.000000 0.000000 -34.656067 9.349882 -62.707196 -19.668727 31.132971 -7.785516 4.251752 2.874118 18.329354 7.125000 0.000000 0.000000 
9.733391 17.118178 -10.214167 -47.245450 46.382826 107.298708 57.213594 -10.194011 -19.903958 1.516419 -0.687085 1.340516 6.803693 -0.817916 -41.924635 8.640800 16.570900 54.839400 8.296645 3.178423 29.226046 1.166213 -3.916328 8.855007 9.136682 -45.355168 -4.481800 -4.263700 -12.503300 37.536400 -2.133315 -5.997855 -6.393133 -12.612486 -3.109306 -4.170059 2.406382 -14.742739 -24.064269 1.357500 -6.716700 -8.583400 54.593372 -37.228888 -81.241785 13.796174 -26.054480 -2.899700 -0.073748 -0.100824 6.201787 -7.125000 0.000000 0.000000 -33.572470 8.717879 -62.123592 -20.659759 31.791458 -8.400740 4.242697 2.674147 19.817611 7.125000 0.000000 0.000000 
9.763233 17.138507 -9.859068 -47.016727 48.088866 109.075197 56.916553 -8.879439 -19.731833 1.187427 -0.591763 2.605119 3.034905 6.230595 -37.618850 8.418400 16.418500 54.056200 7.618294 4.102371 29.433881 1.229431 -3.643529 8.209311 9.569976 -45.745611 -6.228838 -4.170700 -12.384100 37.104600 -2.093908 -5.920356 -6.532293 -12.546441 -3.084260 -4.093731 2.437920 -15.232000 -23.838665 1.347100 -6.947700 -8.432000 54.722416 -37.302161 -80.700594 14.265562 -26.703487 -3.112615 -0.041434 -0.122183 6.572761 -7.125000 0.000000 0.000000 -32.733339 8.148822 -61.911061 -21.169890 32.038516 -8.731734 4.297893 2.527623 20.721241 7.125000 0.000000 0.000000 
9.791673 17.151024 -9.509876 -46.858108 49.682841 110.740629 56.320010 -8.171047 -19.436389 1.125194 -0.286483 3.600130 1.348854 8.721245 -34.266303 8.250400 16.300400 53.459800 6.544540 4.839143 29.506915 1.291062 -3.288833 7.362305 9.934225 -46.070307 -7.714449 -4.278800 -12.522400 37.606200 -2.080164 -5.900289 -6.684597 -12.562081 -3.095288 -4.001649 2.460142 -15.537715 -23.601299 1.285400 -7.125000 -8.295800 55.045198 -37.308465 -80.050345 14.559139 -27.127051 -3.236722 -0.019665 -0.139636 6.889350 -7.125000 0.000000 0.000000 -32.036574 7.788075 -61.848817 -21.364239 32.035873 -8.872415 4.370082 2.442836 21.223468 7.125000 0.000000 0.000000 
9.820814 17.154830 -9.164591 -46.669903 51.229068 112.343293 55.513695 -8.068624 -18.900557 1.156459 -0.032278 4.270378 0.772264 9.076627 -32.135604 8.327800 16.355100 53.735000 5.180673 5.282070 29.398802 1.356595 -2.903088 6.433852 10.352806 -46.442551 -9.515911 -4.435300 -12.718100 38.322300 -2.034490 -5.913442 -6.873549 -12.404460 -3.122376 -4.021861 3.079602 -15.855962 -23.308967 1.573500 -7.277100 -8.048300 54.431755 -37.115890 -78.057497 15.143738 -27.800065 -3.515138 0.014861 -0.152827 6.394481 -7.125000 0.000000 0.000000 -31.397482 7.576580 -61.548107 -21.710508 32.207219 -9.106273 4.390010 2.390895 21.583874 7.125000 0.000000 0.000000 
9.851357 17.151625 -8.818003 -46.352426 52.802901 114.018426 54.806770 -9.327907 -17.749742 1.167295 -0.063663 4.172007 0.951569 8.485810 -31.967445 8.417800 16.418100 54.053900 3.990581 5.758370 29.211795 1.426805 -2.518930 5.504868 10.859159 -46.937907 -11.665229 -4.547000 -12.854700 38.827000 -1.943665 -5.890191 -7.052486 -12.157968 -3.144102 -4.013369 3.347337 -16.589825 -23.169629 1.642200 -7.668100 -7.999500 53.645899 -36.892111 -76.021966 15.790900 -28.531024 -3.833753 0.051385 -0.166907 5.795921 -7.125000 0.000000 0.000000 -30.721771 7.286795 -61.011207 -22.227228 32.513346 -9.440066 4.388648 2.309599 21.837293 7.125000 0.000000 0.000000 
